<svg width="25" height="25" viewBox="0 0 25 25" fill="none" xmlns="http://www.w3.org/2000/svg">
<g clip-path="url(#clip0_151_585)">
<path d="M4.50008 9.57335H9.57341V4.50002H16.5001V10.0867H17.8334V4.50002C17.8334 4.1464 17.6929 3.80726 17.4429 3.55721C17.1928 3.30716 16.8537 3.16669 16.5001 3.16669H7.74675L3.16675 7.74669V20.5C3.16675 20.8536 3.30722 21.1928 3.55727 21.4428C3.80732 21.6929 4.14646 21.8334 4.50008 21.8334H16.5001C16.8537 21.8334 17.1928 21.6929 17.4429 21.4428C17.6929 21.1928 17.8334 20.8536 17.8334 20.5H4.50008V9.57335ZM4.50008 8.29335L8.29341 4.50002H8.50008V8.50002H4.50008V8.29335Z" fill="black"/>
<path d="M19.3799 11.4C19.2524 11.2908 19.0883 11.2337 18.9205 11.2402C18.7528 11.2467 18.5936 11.3162 18.4749 11.4349C18.3561 11.5537 18.2866 11.7128 18.2801 11.8806C18.2736 12.0484 18.3307 12.2125 18.4399 12.34L20.6066 14.5H12.4999C12.3231 14.5 12.1535 14.5702 12.0285 14.6953C11.9035 14.8203 11.8333 14.9898 11.8333 15.1667C11.8333 15.3435 11.9035 15.513 12.0285 15.6381C12.1535 15.7631 12.3231 15.8333 12.4999 15.8333H20.6266L18.4399 18.02C18.3701 18.0798 18.3134 18.1533 18.2734 18.236C18.2334 18.3187 18.2109 18.4088 18.2074 18.5006C18.2038 18.5924 18.2193 18.684 18.2528 18.7695C18.2863 18.8551 18.3372 18.9328 18.4022 18.9978C18.4671 19.0627 18.5448 19.1136 18.6304 19.1471C18.7159 19.1806 18.8075 19.1961 18.8993 19.1925C18.9911 19.189 19.0812 19.1665 19.1639 19.1265C19.2466 19.0865 19.3202 19.0298 19.3799 18.96L23.1666 15.1667L19.3799 11.4Z" fill="black"/>
</g>
<defs>
<clipPath id="clip0_151_585">
<rect width="24" height="24" fill="white" transform="translate(0.5 0.5)"/>
</clipPath>
</defs>
</svg>
