<svg width="25" height="25" viewBox="0 0 25 25" fill="none" xmlns="http://www.w3.org/2000/svg">
<path d="M16.75 21.5V16.735C16.7497 16.526 16.7083 16.3192 16.628 16.1262C16.5477 15.9333 16.4302 15.7581 16.2822 15.6106C16.1341 15.4631 15.9585 15.3462 15.7652 15.2667C15.572 15.1872 15.365 15.1465 15.156 15.147H9.844C9.63503 15.1465 9.42801 15.1872 9.23477 15.2667C9.04153 15.3462 8.86586 15.4631 8.71782 15.6106C8.56978 15.7581 8.45226 15.9333 8.37199 16.1262C8.29171 16.3192 8.25026 16.526 8.25 16.735V21.5M16.75 3.78501V6.14701C16.7497 6.35598 16.7083 6.56285 16.628 6.75579C16.5477 6.94873 16.4302 7.12395 16.2822 7.27143C16.1341 7.41892 15.9585 7.53577 15.7652 7.61532C15.572 7.69486 15.365 7.73554 15.156 7.73501H9.844C9.63503 7.73554 9.42801 7.69486 9.23477 7.61532C9.04153 7.53577 8.86586 7.41892 8.71782 7.27143C8.56978 7.12395 8.45226 6.94873 8.37199 6.75579C8.29171 6.56285 8.25026 6.35598 8.25 6.14701V3.50001M16.75 3.78501C16.3353 3.59719 15.8853 3.50003 15.43 3.50001H8.25M16.75 3.78501C17.094 3.94101 17.411 4.15901 17.684 4.43001L20.066 6.80501C20.3618 7.09933 20.5965 7.44915 20.7568 7.8344C20.9171 8.21965 20.9997 8.63275 21 9.05001V18.322C20.9997 18.74 20.9171 19.1539 20.7567 19.5399C20.5963 19.926 20.3614 20.2766 20.0654 20.5718C19.7694 20.867 19.4181 21.1009 19.0316 21.2601C18.6451 21.4194 18.231 21.5009 17.813 21.5H7.188C6.76998 21.5011 6.35585 21.4197 5.9693 21.2605C5.58276 21.1014 5.23139 20.8676 4.93529 20.5725C4.63919 20.2774 4.40417 19.9269 4.24369 19.5409C4.0832 19.1549 4.00039 18.741 4 18.323V6.67601C4.00052 6.25807 4.08343 5.84433 4.24397 5.45846C4.40452 5.07258 4.63956 4.72214 4.93564 4.42716C5.23173 4.13219 5.58306 3.89848 5.96953 3.73939C6.35601 3.5803 6.77006 3.49896 7.188 3.50001H8.25" stroke="black" stroke-width="1.5" stroke-linecap="round" stroke-linejoin="round"/>
</svg>
